<?xml version="1.0" encoding="UTF-8"?>
<svg width="701px" height="177px" viewBox="0 0 701 177" version="1.1" xmlns="http://www.w3.org/2000/svg" xmlns:xlink="http://www.w3.org/1999/xlink">
    <!-- Generator: Sketch 61 (89581) - https://sketch.com -->
    <title>80bots_1@2x copy 9</title>
    <desc>Created with Sketch.</desc>
    <g id="Page-1" stroke="none" stroke-width="1" fill="none" fill-rule="evenodd">
        <g id="80bots_logo_2020_1" transform="translate(-528.000000, -5723.000000)" fill-rule="nonzero">
            <g id="80bots_1@2x-copy-9" transform="translate(528.000000, 5723.000000)">
                <path d="M362.207478,110.976923 C362.207478,111.56022 362.207478,113.330535 358.201251,115.343482 C356.021048,116.439819 351.473742,117.749378 342.187556,117.749378 L334.483489,117.749378 L322.943275,117.749378 C313.657089,117.749378 309.109783,116.439819 306.930515,115.343482 C302.923353,113.330535 302.923353,111.56022 302.923353,110.976923 L302.923353,107.602133 L302.928026,107.602133 L302.928026,72.2342369 L342.187556,72.2342369 C351.479349,72.2342369 356.037869,73.5168368 358.226482,74.5927502 C362.207478,76.5509617 362.207478,78.397252 362.207478,79.0050573 L362.207478,110.976923 Z M342.731439,55.9836145 L302.928026,55.9836145 L302.928026,37.1342976 C302.928026,33.0152729 300.830994,31.1812368 299.070385,30.3691958 C297.08456,29.4485015 294.455794,29 291.032699,29 C287.52176,29 284.847204,29.4485015 282.857641,30.3691958 C281.097966,31.1828707 279,33.0185407 279,37.1342976 L279,109.290754 C279,120.186317 286.020943,133.103814 318.791265,133.953434 L318.791265,134 L322.269496,134 L334.483489,134 L342.731439,134 C378.493113,134 386,120.562111 386,109.290754 L386,80.6912268 C386,69.4198696 378.493113,55.9836145 342.731439,55.9836145 L342.731439,55.9836145 Z" id="Fill-1" fill="#FF7D7D"></path>
                <path d="M592,125.214619 C592,121.02938 588.105321,117.625374 583.31868,117.625374 L573.21512,117.625374 C565.369248,117.625374 562.036872,116.733829 558.930548,115.191942 C556.243361,113.859975 554.841841,112.926446 554.841841,107.810147 L554.855027,71.7606145 L583.85932,71.7606145 C587.88963,71.7606145 589.751729,70.1652183 590.605074,68.8258428 C591.549781,67.3358185 592,66.1676724 592,63.5687736 C592,60.9764606 591.549781,59.8099609 590.60319,58.317467 C589.751729,56.979738 587.88963,55.385165 583.85932,55.385165 L554.855027,55.385165 L554.855027,36.135862 C554.855027,31.6493247 550.679668,28 545.547357,28 L540.242681,28 C535.146161,28 531,31.6229818 531,36.0757671 L531,109.101776 C531,125.855083 544.62808,134 572.665061,134 L583.53908,134 C588.204218,134 592,130.683255 592,126.603388 L592,125.214619 Z" id="Fill-3" fill="#FF7D7D"></path>
                <path d="M492.087844,110.981518 C492.087844,111.564698 492.087844,113.33466 488.060534,115.347205 C485.870308,116.443323 481.300137,117.752621 471.966319,117.752621 L445.032741,117.752621 C435.699863,117.752621 431.127814,116.443323 428.932892,115.345571 C424.912156,113.33466 424.912156,111.564698 424.912156,110.981518 L424.912156,79.0160319 C424.912156,78.4083479 424.912156,76.562426 428.912229,74.6046054 C431.111847,73.5289067 435.694228,72.2465627 445.032741,72.2465627 L471.966319,72.2465627 C481.305772,72.2465627 485.887214,73.5289067 488.086832,74.6046054 C492.087844,76.562426 492.087844,78.4083479 492.087844,79.0160319 L492.087844,110.981518 Z M516,80.701865 C516,69.432757 508.455367,56 472.513876,56 L444.485185,56 C408.544633,56 401,69.432757 401,80.701865 L401,109.295685 C401,120.564793 408.544633,134 444.485185,134 L472.513876,134 C508.455367,134 516,120.564793 516,109.295685 L516,80.701865 Z" id="Fill-5" fill="#FF7D7D"></path>
                <path d="M701,107.639114 C701,94.3359968 689.2213,87.3032436 666.936944,87.3032436 L639.767109,87.3032436 C637.573342,87.3032436 635.596602,87.1344642 633.889503,86.7993751 C630.898087,86.2065886 628.724989,83.7786339 628.724989,81.0213534 L628.724989,78.3258215 C628.724989,75.359419 631.138603,72.8870054 634.464486,72.4448854 C636.005291,72.2407034 637.790369,72.1377891 639.767109,72.1377891 L692.30197,72.1377891 C696.844525,72.1377891 698.863543,70.0251639 699.664949,68.7654926 C700.567823,67.3362185 701,66.259323 701,64.0083809 C701,61.85212 700.578158,60.799924 699.745747,59.5023802 L699.648038,59.3492437 C698.854148,58.0978055 696.844525,56 692.30197,56 L640.063056,56 C617.779639,56 606,63.0327531 606,76.3358701 L606,83.1076325 C606,96.4107495 617.779639,103.443503 640.063056,103.443503 L667.232891,103.443503 C669.134469,103.443503 670.864116,103.529951 672.372978,103.697084 C675.73926,104.077455 678.27595,106.61491 678.27595,109.599426 L678.27595,111.680765 C678.27595,114.613412 675.795631,117.143457 672.510147,117.564994 C670.981556,117.760943 669.205872,117.860564 667.232891,117.860564 L614.69803,117.860564 C610.154535,117.860564 608.145852,119.960016 607.353841,121.209808 L607.228886,121.400817 C606.414326,122.645669 606,123.666579 606,125.79567 C606,128.096011 606.454725,129.231362 607.348204,130.640877 C608.142094,131.895608 610.154535,134 614.69803,134 L666.936944,134 C689.2213,134 701,126.96807 701,113.66413 L701,107.639114 Z" id="Fill-7" fill="#FF7D7D"></path>
                <path d="M565.894824,177.000082 L581.974013,177.000082 C583.463878,177.000082 584.117527,176.4022 584.399419,175.905612 C584.699284,175.387612 584.844013,174.714788 584.844013,173.848435 C584.844013,172.949141 584.696446,172.266435 584.394689,171.761612 C584.107122,171.274082 583.453473,170.695141 581.974013,170.695141 L566.082122,170.695141 C563.538473,170.695141 561.703338,170.422553 560.630635,169.883141 C559.302527,169.218553 559.302527,168.651141 559.302527,168.4642 L559.302527,158.330671 C559.302527,158.133847 559.302527,157.538435 560.622122,156.892788 C561.699554,156.364082 563.536581,156.097259 566.082122,156.097259 L581.926716,156.097259 C583.389149,156.097259 584.055095,155.533141 584.357797,155.060435 C584.685095,154.546553 584.844013,153.854788 584.844013,152.945612 C584.844013,152.037259 584.685095,151.344671 584.356851,150.829141 C584.053203,150.358082 583.385365,149.793965 581.926716,149.793965 L565.894824,149.793965 C555.968068,149.793965 550.936581,152.665612 550.936581,158.330671 L550.936581,168.4642 C550.936581,174.128435 555.968068,177.000082 565.894824,177.000082" id="Fill-9" fill="#FF7D7D"></path>
                <path d="M612.427197,170.695388 C609.874197,170.695388 608.033685,170.4228 606.955941,169.883388 C605.625838,169.2188 605.625838,168.651388 605.625838,168.464447 L605.625838,158.330094 C605.625838,158.134094 605.625838,157.537859 606.948351,156.893035 C608.028941,156.364329 609.873249,156.096682 612.427197,156.096682 L618.776967,156.096682 C621.329967,156.096682 623.174274,156.364329 624.256761,156.893035 C625.576428,157.537859 625.576428,158.134094 625.576428,158.330094 L625.576428,168.464447 C625.576428,168.651388 625.576428,169.220447 624.247274,169.883388 C623.168582,170.4228 621.329018,170.695388 618.776967,170.695388 L612.427197,170.695388 Z M633.970685,168.464447 L633.970685,158.330094 C633.970685,152.665859 628.922556,149.794212 618.965761,149.794212 L612.239351,149.794212 C602.282556,149.794212 597.233479,152.665859 597.233479,158.330094 L597.233479,168.464447 C597.233479,174.128682 602.282556,177.000329 612.239351,177.000329 L618.965761,177.000329 C628.922556,177.000329 633.970685,174.128682 633.970685,168.464447 L633.970685,168.464447 Z" id="Fill-12" fill="#FF7D7D"></path>
                <path d="M644.6555,158.167118 L644.6555,174.134529 C644.6555,175.588059 645.397434,176.237823 646.01509,176.521941 C646.702828,176.843941 647.610156,177.000412 648.787533,177.000412 C649.997615,177.000412 650.919893,176.843941 651.600156,176.525235 C652.223418,176.237823 652.965352,175.588059 652.965352,174.134529 L652.965352,158.167118 C652.965352,157.979353 652.965352,157.408647 654.258598,156.744059 C655.303287,156.208765 657.103926,155.936176 659.615664,155.936176 L661.899402,155.936176 C664.40927,155.936176 666.211779,156.208765 667.258336,156.746529 C668.531959,157.397118 668.544107,157.964529 668.544107,158.163824 L668.544107,158.167118 L668.544107,174.134529 C668.544107,175.588059 669.286041,176.237823 669.904631,176.521941 C670.592369,176.843941 671.499697,177.000412 672.727533,177.000412 C673.907713,177.000412 674.814107,176.843941 675.494369,176.525235 C676.116697,176.237823 676.858631,175.588059 676.858631,174.134529 L676.856762,158.156412 C676.858631,157.970294 676.864238,157.402882 678.148139,156.744059 C679.191893,156.208765 680.993467,155.936176 683.50427,155.936176 L685.788008,155.936176 C688.297877,155.936176 690.10132,156.208765 691.146008,156.744059 C692.439254,157.408647 692.439254,157.979353 692.439254,158.167118 L692.439254,174.134529 C692.439254,175.588059 693.181188,176.237823 693.79791,176.521941 C694.486582,176.843941 695.407926,177.000412 696.616139,177.000412 C697.795385,177.000412 698.702713,176.843941 699.382041,176.525235 C700.005303,176.237823 700.747238,175.588059 700.747238,174.134529 L700.747238,158.167118 C700.747238,152.502882 695.77609,149.631235 685.973025,149.631235 L683.321123,149.631235 C678.66768,149.631235 675.18227,150.272765 672.702303,151.587941 C670.222336,150.272765 666.737861,149.631235 662.083484,149.631235 L659.431582,149.631235 C649.626648,149.631235 644.6555,152.502882 644.6555,158.167118" id="Fill-15" fill="#FF7D7D"></path>
                <path d="M536.944671,176 L535.055329,176 C532.824943,176 531,174.424961 531,172.5 C531,170.575039 532.824943,169 535.055329,169 L536.944671,169 C539.175057,169 541,170.575039 541,172.5 C541,174.424961 539.175057,176 536.944671,176" id="Fill-18" fill="#FF7D7D"></path>
                <path d="M245,70.9845537 C243.52627,67.4441089 241.616399,64.3516056 239.297469,61.6769642 C236.433128,58.3682132 233.008434,55.7862493 229.065413,53.9156263 C225.109317,52.0450032 220.771247,51.1174148 216.065211,51.1174148 L176.525731,51.1174148 C171.914955,51.1174148 167.65907,52.0450032 163.743133,53.9156263 C159.841204,55.7862493 156.471612,58.3682132 153.648364,61.6769642 C151.355584,64.3670519 149.472796,67.4750015 148,71 C148.381974,68.6188375 148.941394,66.3466117 149.691334,64.197143 C151.206156,59.8681261 153.306548,56.12688 155.980368,52.9880379 C158.654189,49.864642 161.846336,47.4062482 165.543735,45.6437489 C169.241135,43.8812496 173.265407,43 177.630561,43 L214.98653,43 C219.43387,43 223.540327,43.8812496 227.278819,45.6437489 C231.030386,47.4062482 234.249617,49.864642 236.978539,52.9880379 C239.693452,56.12688 241.807853,59.8835724 243.321741,64.2743743 C244.058606,66.423843 244.618026,68.6651762 245,70.9845537" id="Fill-23" fill="#FF7D7D"></path>
                <path d="M221,79.5 C221,86.6711005 217.41824,89 212.999521,89 C208.58176,89 205,86.6711005 205,79.5 C205,72.3288995 208.58176,70 212.999521,70 C217.41824,70 221,72.3288995 221,79.5 M177.000479,70 C172.58176,70 169,72.3288995 169,79.5 C169,86.6711005 172.58176,89 177.000479,89 C181.41824,89 185,86.6711005 185,79.5 C185,72.3288995 181.41824,70 177.000479,70" id="Fill-27" fill="#FF7D7D"></path>
                <path d="M243.703312,94.4339472 C242.172187,98.6669335 240.041371,102.27518 237.298105,105.295436 C234.55484,108.317054 231.301199,110.685348 227.524423,112.413931 C223.747648,114.142514 219.61361,115 215.12231,115 L177.456631,115 C173.054646,115 168.997165,114.142514 165.271427,112.413931 C161.545689,110.685348 158.330326,108.317054 155.625338,105.295436 C152.93311,102.27518 150.815053,98.6669335 149.283928,94.4339472 C147.765563,90.2281825 147,85.6821457 147,80.7835869 C147,78.2642114 147.191391,75.8564452 147.586931,73.5684548 C147.969713,71.3104083 148.531125,69.1598879 149.283928,67.1182546 C150.815053,63.0064051 152.93311,59.4553243 155.625338,56.4731785 C158.330326,53.5073659 161.545689,51.1799039 165.271427,49.5044035 C168.997165,47.8316253 173.054646,47 177.456631,47 L215.12231,47 C219.61361,47 223.747648,47.8316253 227.524423,49.5044035 C231.301199,51.1799039 234.55484,53.5073659 237.298105,56.4731785 C240.041371,59.4553243 242.172187,63.020016 243.703312,67.184948 C244.443356,69.2265813 245.004769,71.3498799 245.38755,73.5548439 C245.79585,75.868695 246,78.2778223 246,80.7835869 C246,85.6821457 245.221678,90.2281825 243.703312,94.4339472 L243.703312,94.4339472 Z M261.966151,65.2473162 C261.620994,63.8734049 261.224703,62.5412497 260.777278,61.2198704 C260.611091,60.6958983 260.419337,60.1692323 260.227584,59.6439133 C257.888189,53.4343731 254.602809,48.0868949 250.371444,43.629765 C246.140079,39.1699413 241.064998,35.7230403 235.184552,33.2446121 C229.291322,30.7796536 222.78448,29.5404395 215.664026,29.5404395 L204.657364,29.5404395 L201.448686,20.0833502 C204.759633,18.3457565 207.03511,14.7493417 207.03511,10.5871987 C207.03511,4.74268787 202.548073,0 196.987216,0 C191.439143,0 186.952107,4.74268787 186.952107,10.5871987 C186.952107,14.7628114 189.240367,18.3592263 192.564098,20.0968199 L189.35542,29.5404395 L177.9269,29.5404395 C171.100468,29.5404395 164.772596,30.7648369 158.968851,33.1759165 C153.152323,35.6018128 148.115592,39.0083046 143.833093,43.4263723 C139.563378,47.8323172 136.226864,53.1797954 133.836334,59.4283978 C133.60623,60.0480049 133.388909,60.6676119 133.184372,61.287219 C132.74973,62.5803119 132.366223,63.9003443 132.033849,65.2473162 L126,69.6519141 L126,92.9019951 L132.736946,97.8305651 C133.069319,98.9485518 133.440043,100.040946 133.836334,101.130646 C136.226864,107.569172 139.563378,113.145635 143.833093,117.834444 C148.115592,122.548845 153.152323,126.239548 158.968851,128.946962 C164.772596,131.653028 171.100468,133 177.9269,133 L215.664026,133 C222.682211,133 229.125135,131.653028 234.980014,128.946962 C240.82211,126.239548 245.897191,122.548845 250.166907,117.834444 C254.449406,113.145635 257.773136,107.569172 260.163666,101.130646 C260.559957,100.040946 260.930681,98.9485518 261.263054,97.8305651 L268,92.9019951 L268,69.6519141 L261.966151,65.2473162 Z M88.5627301,114 L30.4372699,114 C23.5630368,114 18,108.188235 18,101.00798 C18,93.8250639 23.5630368,88 30.4372699,88 L88.5627301,88 C95.4369632,88 101,93.8250639 101,101.00798 C101,108.188235 95.4369632,114 88.5627301,114 L88.5627301,114 Z M38.4826468,47 L80.5173532,47 C87.4166667,47 93,52.8117647 93,59.9946803 C93,67.1749361 87.4166667,73 80.5173532,73 L38.4826468,73 C31.5833333,73 26,67.1749361 26,59.9946803 C26,52.8117647 31.5833333,47 38.4826468,47 L38.4826468,47 Z M113.674187,88.0185535 C111.063341,83.6575236 107.390239,79.945064 103.077223,77.6562298 C104.126681,76.3779273 105.073753,74.9919783 105.90564,73.5387502 C108.375705,69.2059775 109.834707,64.1600466 109.834707,59.0064691 C109.834707,42.4423599 97.0492408,29 81.294577,29 L36.705423,29 C28.821692,29 21.6930586,32.3639539 16.5225597,37.7879933 C11.364859,43.2241428 8.16529284,50.732488 8.16529284,59.0064691 C8.16529284,65.924104 11.0193059,72.7179454 15.1787419,77.7907879 C6.68069414,82.4613016 0,92.9824039 0,102.993531 C0,111.283659 3.19956616,118.777203 8.35726681,124.213352 C13.5277657,129.636046 20.6563991,133 28.5401302,133 L89.4598698,133 C105.214534,133 118,119.55764 118,102.993531 C118,97.8278432 116.413015,92.5652736 113.674187,88.0185535 L113.674187,88.0185535 Z" id="Fill-3" fill="#FFFFFF"></path>
            </g>
        </g>
    </g>
</svg>